<?xml version="1.0" encoding="UTF-8"?><svg id="Layer_2" xmlns="http://www.w3.org/2000/svg" width="509.25" height="137.01" viewBox="0 0 509.25 137.01"><defs><style>.cls-1{fill:aqua;}</style></defs><g id="Layer_2-2"><path class="cls-1" d="m448.61,45.01c4.26-15.46.27-16.79.27-16.79h-50.1c-4.8,27.72-12.26,49.57-12.26,49.57h22.92v-9.59h12.26c2.66,3.73,1.6,9.06,1.6,9.06h21.32l-4.26-11.19c4-.8,8.26-21.05,8.26-21.05Zm-26.65,11.73c-5.33,2.66-6.93,0-6.93,0l2.66-14.92c4.8-4.8,7.46,0,7.46,0l-3.2,14.92Z"/><path class="cls-1" d="m89.38,78.59h41.04s6.4,0,9.59-13.32l1.07-8.26-22.39.27s-1.07,7.2-3.2,9.86h-11.99l5.86-27.72h11.46s.53,4-1.07,9.33h21.85s3.73-21.32-4.26-22.39l-40.77.27s-7.99.53-9.06,9.06l-4.8,37.31s-.27,5.06,6.66,5.6Z"/><path class="cls-1" d="m152.01,27.16h23.98l-3.2,20.25h9.59l3.2-20.25h26.65s-10.66,37.84-10.13,49.57h-25.05l3.73-17.59h-9.59l-3.2,18.12h-25.58s6.93-23.98,9.59-50.1Z"/><path class="cls-1" d="m267.66,77.79c-1.6-3.2-5.86-57.56-5.86-57.56l-26.65,11.73-42.64,60.23,15.46.53,14.39-23.45h19.72v8.53h25.58Zm-28.78-17.59h-7.99l7.99-10.66v10.66Z"/><path class="cls-1" d="m286.85,28.22h38.91s9.06-1.6,4.8,17.59l-19.45.27v-6.4s-16.52-2.66-12.53,8.26h23.45s13.06,1.87.53,26.12c0,0-1.87,3.46-6.4,3.73h-43.17v-15.99h3.73v2.13h28.78s5.06-4-1.07-5.33h-24.52s-5.6.8-5.33-6.93c0,0,2.13-23.45,12.26-23.45Z"/><path class="cls-1" d="m387.59,27.69h-42.11c-7.46,1.07-8.53,10.13-8.53,10.13l-6.4,31.45c-.53,6.4,4.8,7.99,4.8,7.99h45.3c7.46-9.06,3.73-11.73,3.73-11.73-12.26,3.2-26.12,2.13-26.12,2.13-7.46,0-4.26-8.53-4.26-8.53h34.64l3.73-19.72c3.2-12.79-4.8-11.73-4.8-11.73Zm-18.12,17.59h-11.19c-.53-5.33,2.66-4.8,2.66-4.8h8.53c3.2,1.07.09,4.7,0,4.8Z"/><path class="cls-1" d="m464.4,28.23h38.91s9.06-1.6,4.8,17.59l-19.45.27v-6.4s-16.52-2.66-12.53,8.26h23.45s13.06,1.87.53,26.12c0,0-1.87,3.46-6.4,3.73h-43.17v-15.99h3.73v2.13h28.78s5.06-4-1.07-5.33h-24.52s-5.6.8-5.33-6.93c0,0,2.13-23.45,12.26-23.45Z"/><ellipse class="cls-1" cx="179.06" cy="113.78" rx="7.01" ry="14.89" transform="translate(-30.19 148.73) rotate(-41.92)"/><ellipse class="cls-1" cx="162.24" cy="120" rx="9.42" ry="16.71" transform="translate(-39.55 117.85) rotate(-35.88)"/><ellipse class="cls-1" cx="135.38" cy="120.06" rx="13.72" ry="18.52" transform="translate(-44.96 105.21) rotate(-36.86)"/><ellipse class="cls-1" cx="99.57" cy="110.1" rx="16.56" ry="20.43" transform="translate(-45.56 141.28) rotate(-60)"/><ellipse class="cls-1" cx="62.64" cy="88.9" rx="15.37" ry="23.29" transform="translate(-35.75 135.22) rotate(-80.04)"/><ellipse class="cls-1" cx="36.3" cy="63.77" rx="12.08" ry="24.72" transform="translate(-29.86 95.5) rotate(-85.98)"/><ellipse class="cls-1" cx="22.89" cy="40.4" rx="10.15" ry="23.22" transform="translate(-21.1 55.29) rotate(-79.16)"/><ellipse class="cls-1" cx="24.21" cy="22.44" rx="7.01" ry="21.16" transform="translate(-4.1 39.41) rotate(-73.78)"/><ellipse class="cls-1" cx="34.36" cy="12.76" rx="5.08" ry="18.21" transform="translate(11.12 41.09) rotate(-71.02)"/><ellipse class="cls-1" cx="49.03" cy="7.9" rx="5.13" ry="14.55" transform="translate(20.32 48.42) rotate(-63.83)"/><ellipse class="cls-1" cx="65.78" cy="8.28" rx="3.81" ry="11.73" transform="translate(25.71 61.11) rotate(-60)"/><ellipse class="cls-1" cx="81.81" cy="10.56" rx="3.13" ry="11.39" transform="translate(31.76 76.13) rotate(-60)"/><ellipse class="cls-1" cx="98.15" cy="15.12" rx="3.09" ry="9.83" transform="translate(35.98 92.56) rotate(-60)"/></g></svg>